<svg xmlns="http://www.w3.org/2000/svg" width="240" height="240" fill="none"><path fill="#FAF0C1" fill-rule="evenodd" d="M102.532 207.253c23.031 15.186 97.209 3.766 119.77-21.148 38.307-42.304-12.131-148.45-75.691-140.22-148.44 19.221-84.138 134.953-44.079 161.368Z" clip-rule="evenodd"/><mask id="a" width="138" height="45" x="98" y="146" maskUnits="userSpaceOnUse" style="mask-type:luminance"><path fill="#fff" fill-rule="evenodd" d="M98.128 146.665h137.465v43.882H98.128v-43.882Z" clip-rule="evenodd"/></mask><g mask="url(#a)"><path fill="#FBF7E5" fill-rule="evenodd" d="M216.602 147.917c-4.542.207-15.96.562-30.483 1.932-14.345 1.353-31.72 3.697-48.496 7.869-16.75 4.165-23.023 7.541-39.495 12.605l.436.103c.865-.167 2.197-.047 4.074.393 8.263 1.937 82.634 14.529 90.071 15.497 4.086.533 14.297 2.563 24.863 4.231 1.755-1.428 3.341-2.909 4.729-4.442.644-.71 1.259-1.44 1.853-2.185 7.967-10.008 11.493-23.105 11.438-37.255-9.557.493-16.012 1.116-18.99 1.252Z" clip-rule="evenodd"/></g><path fill="#F8E186" fill-rule="evenodd" d="M217.814 88.44c-3.906 6.41-7.706 16.084-11.814 24.021-4.784 9.241-12.627 23.811-19.881 37.389-5.736 10.739-11.105 20.858-14.297 27.227 0 0 37.155 5.345 52.332 6.843 7.968-10.007 11.493-23.105 11.438-37.255-.074-19.172-6.719-40.272-17.778-58.225Z" clip-rule="evenodd"/><path fill="#0B5077" fill-rule="evenodd" d="M190.463 156.751c0 10.533 1.486 25.316 3.853 42.301.725 5.196-20.412 10.569-21.898 5.341-3.197-11.248-7.503-26.323-8.774-28.931-1.86-3.821-2.567-1.984-3.032-.838-.648 1.595-.421 17.626-.536 29.553-.051 5.219-12.919 5.235-14.25-.943-3.36-15.587-8.581-40.099-7.914-47.213.93-9.934 52.551-10.732 52.551.73Z" clip-rule="evenodd"/><path fill="#F8E186" fill-rule="evenodd" d="M192.71 186.316c-7.437-.968-81.808-13.56-90.072-15.497-1.877-.44-3.209-.56-4.074-.394-2.941.567-.421 4.488 4.901 10.726 5.743 6.732 15.094 21.331 24.445 32.714 25.269 1.591 59.611-5.168 81.022-17.464 3.19-1.832 6.097-3.785 8.64-5.854-10.566-1.668-20.777-3.698-24.862-4.231Z" clip-rule="evenodd"/><mask id="b" width="79" height="70" x="142" y="25" maskUnits="userSpaceOnUse" style="mask-type:luminance"><path fill="#fff" fill-rule="evenodd" d="M142.678 25h77.412v69.948h-77.412V25Z" clip-rule="evenodd"/></mask><g mask="url(#b)"><path fill="#0B5077" fill-rule="evenodd" d="M217.232 82.712c5.471-8.961 3.464-18.659-9.308-23.52-9.415-3.585-18.97-6.542-25.537-19.692-6.566-13.149-30.514-23.067-38.481-3.457-5.838 14.37 10.575 28.531 18.991 30.534 8.416 2.002 12.921 19.197 22.412 25.613 7.287 4.926 23.634 4.098 31.923-9.478Z" clip-rule="evenodd"/></g><path fill="#88BCDA" fill-rule="evenodd" d="M149.721 61.721c-4.924-3.277-4.861-6.717-5.159-12.11-.769-13.987.413-14.479 7.848-15.808 11.153-1.994 16.546 5.338 17.925 13.116 1.379 7.778-1.184 12.018-1.567 16.06-.61 6.447.785 9.201 5.213 14.147 5.635 6.292-11.91 12.805-18.37 9.992-6.459-2.814-6.388-10.572-2.37-13.532 2.289-1.687 1.425-8.574-3.52-11.865Z" clip-rule="evenodd"/><path fill="#0B5077" fill-rule="evenodd" d="M144.806 34.024c-3.125 7.335 8.524 8.673 14.068 8.17 7.645-.694 10.515 15.562 9.88 20.953-.149 1.265 15.043-23.673-6.842-33.444-9.451-4.22-15.702 1.026-17.106 4.32Z" clip-rule="evenodd"/><path fill="#083752" fill-rule="evenodd" d="M155.293 48.428c.114-.48-.021-.77-.466-1.038-.389-.235-.828.02-.961.263-.301.549-.049 1.61.623 1.57.456-.028.709-.395.804-.795ZM146.836 46.044c.098-.41-.017-.657-.396-.886-.333-.2-.708.016-.821.224-.257.468-.042 1.375.532 1.34.389-.024.604-.337.685-.678Z" clip-rule="evenodd"/><path fill="#0B5077" fill-rule="evenodd" d="M158.617 45.755c-1.859-1.044-3.315-.876-4.418-.432-.288.116-.46.424-.381.694.079.27.409.237.695.12.868-.359 2.245-.594 3.884.588.226.163.583.31.761.053.157-.226-.034-.738-.541-1.023ZM147.459 43.135c-1.279-.836-2.526-.892-4.086-.26-.54.218-.805.637-.706.895.112.291.493.233.752.129 1.871-.757 3.077-.618 3.839-.068 1.137.822 1.813 1.59 1.18 3.878-.619 2.232.605 2.832.87 2.605.347-.295-.278-.496-.486-.756-.424-.53.719-2.774.466-3.805-.29-1.177-.657-1.852-1.829-2.618Z" clip-rule="evenodd"/><path fill="#fff" fill-rule="evenodd" d="M150.446 54.215c-1.226-.268-2.467-1.445-2.017-1.716.2-.12.712.293 1.454.508 1.226.355 2.577-.14 2.81.382.163.367-.559 1.194-2.247.826Z" clip-rule="evenodd"/><path fill="#509BC8" fill-rule="evenodd" d="M97.538 51.88c-7.293-6.227-12.179-3.663-12.904-1.275-.755 2.484 2.896.135 7.107 4.776 7.353 8.105 12.628 20.4 19.671 26.26 11.186 9.304 21.666 8.677 33.447 6.801 9.891-1.574 7.534-13.046-.212-11.266-7.513 1.727-20.622 3.213-27.413-1.7-9.02-6.525-14.169-18.877-19.696-23.596Z" clip-rule="evenodd"/><path fill="#fff" fill-rule="evenodd" d="M138.585 101.879c.377-8.911-.063-9.543-1.461-12.214-.869-1.66-1.668-10.553.535-12.544 2.09-1.89 9.222-.265 14.508-3.11 0 0-4.26 3.213-2.239 14.47 2.021 11.257-11.508 17.276-11.343 13.398Z" clip-rule="evenodd"/><path fill="#fff" fill-rule="evenodd" d="M171.245 72.421c17.188 8.257 10.655 27.463 14.536 50.047 2.127 12.378 3.298 22.37 9.437 36.647 3.283 7.635-8.008 5.163-27.561 4.339-19.706-.831-30.024-.842-30.348-4.789-.857-10.438-.772-30.769.756-52.048 1.396-19.448 13.095-33 14.178-32.644 1.084.356-3.228 7.318 1.99 8.916 4.844 1.484 15.77-11.064 17.012-10.468Z" clip-rule="evenodd"/><path fill="#FEA992" fill-rule="evenodd" d="M23.101 44.148c9.228-.408 31.509 5.65 63.736 3.698 13.717-.83 35.514-1.614 42.999-2.099 7.485-.484 14.333-.968 15.926-.968 1.592 0 2.07 1.883 0 2.69-2.07.808-30.534 14.113-46.3 22.992-15.767 8.879-22.989 14.852-35.368 21.955-11.834 6.79-25.078 11.461-33.97 12.641-5.327.707-18.55-.391-22.691-22.023-4.14-21.631 1.039-38.24 15.668-38.886Z" clip-rule="evenodd"/><mask id="c" width="37" height="62" x="5" y="44" maskUnits="userSpaceOnUse" style="mask-type:luminance"><path fill="#fff" fill-rule="evenodd" d="M5 44.226h36.913v60.781H5V44.226Z" clip-rule="evenodd"/></mask><g mask="url(#c)"><path fill="#FE6340" fill-rule="evenodd" d="M41.68 70.516c1.208 14.965-2.234 31.472-11.377 34.015-6.457 1.796-20.127-.654-24.38-22.094-1.828-9.219-2.437-34.968 13.003-37.83 15.44-2.86 21.535 10.81 22.754 25.91Z" clip-rule="evenodd"/></g><path fill="#88BCDA" fill-rule="evenodd" d="M114.604 51.875c-3.91-9.884-12.907-7.936-14.136-5.684-1.28 2.343 2.101.935 5.372 6.496 5.713 9.712 12.478 32.329 17.663 40.213 9.439 14.353 26.373 16.084 38.079 14.567 12.352-1.6 6.413-14.885-1.582-13.177-9.791 2.09-24.098-3.914-29.216-10.867-7.197-9.778-13.424-24.582-16.18-31.548Z" clip-rule="evenodd"/><path fill="#fff" fill-rule="evenodd" d="M163.722 87.744c-2.723 1.478-4.361 3.388-7.272 4.373-2.911.985 4.183 17.296 7.094 16.311 2.911-.985 17.545-4.606 12.964-18.26-1.41-4.2-4.217-7.077-12.786-2.424ZM26.614 69.523c-6.118-1.073-9.81-.513-13.401 3.692-2.912 3.409-3.065 7.794.788 10.666 3.854 2.871 5.344 3.087 9.635 2.666 4.695-.46 10.287-3.306 11.589-6.46 1.302-3.153-1.75-9.36-8.611-10.564Z" clip-rule="evenodd"/><path fill="#509BC8" fill-rule="evenodd" d="M24.911 75.176c-.16-1.749-.882-3.274-3.967-4.247-2.9-.915-5.089 1.806-5.747 3.323-.421.97-.922 5.183 4.367 6.074 4.562.769 5.506-3.401 5.347-5.15Z" clip-rule="evenodd"/><path fill="#fff" fill-rule="evenodd" d="M9.288 68.371c1.263 2.218 2.486 2.356 2.249.554-.237-1.8-1.42-3.879-2.367-3.325-.946.554-.591 1.524.118 2.771ZM20.098 62.998c-.783-2.43-1.952-2.816-2.088-1.005-.136 1.812.598 4.09 1.638 3.742 1.04-.348.89-1.37.45-2.737ZM27.957 64.271c-1.057 2.324-.456 3.401.863 2.157 1.319-1.244 2.309-3.421 1.308-3.87-1-.449-1.577.407-2.171 1.713Z" clip-rule="evenodd"/></svg>